<?xml version="1.0" encoding="UTF-8"?>
<svg width="200px" height="46px" viewBox="0 0 200 46" version="1.1" xmlns="http://www.w3.org/2000/svg" xmlns:xlink="http://www.w3.org/1999/xlink">
    <title>ugloss-logo</title>
    <defs>
        <rect id="path-1" x="0" y="0" width="200" height="46"></rect>
    </defs>
    <g id="页面-1" stroke="none" stroke-width="1" fill="none" fill-rule="evenodd">
        <g id="2首页-切换" transform="translate(-192.000000, -1322.000000)">
            <g id="ugloss-logo" transform="translate(192.000000, 1322.000000)">
                <mask id="mask-2" fill="white">
                    <use xlink:href="#path-1"></use>
                </mask>
                <g id="蒙版"></g>
                <g id="ugloss" mask="url(#mask-2)" fill="#FFFFFF">
                    <g transform="translate(1.000000, 7.000000)">
                        <path d="M114.088066,5.75017947 C108.29236,5.73968897 103.552973,10.4512291 103.537963,16.2377412 C103.522763,22.1020128 108.265302,26.767843 114.250416,26.7773119 C119.846732,26.7859693 124.575085,21.9853736 124.583767,16.2858155 C124.592686,10.4901088 119.881146,5.76070504 114.088066,5.75017947 M130.304066,16.3270595 C130.309583,25.3915531 122.701503,32.6794007 113.691388,32.5089078 C104.956584,32.343669 97.7969346,25.0258735 97.8249611,16.146584 C97.8521017,7.47614174 104.886706,0.195124369 113.703735,0.0243688021 C123.154399,-0.158733706 130.394435,7.53288513 130.304066,16.3270595" id="Fill-1"></path>
                        <path d="M62.9991305,14.2510659 C64.9016102,14.2510659 66.689815,14.2510659 68.5949217,14.2510659 L68.5949217,14.9243682 C68.5949217,17.9162684 68.6062179,20.9081687 68.5804732,23.8998062 C68.5770581,24.272316 68.4567411,24.6939509 68.2568257,25.0076158 C62.6673392,33.7807741 50.4572654,35.1097778 43.09376,27.6682502 C38.5818725,23.1082885 37.2179296,17.5613596 39.1033337,11.4727415 C41.0079151,5.32186324 45.3479962,1.50271796 51.6830277,0.309005197 C57.2648958,-0.742849095 62.153759,0.914005305 66.211174,4.92308331 C66.3598627,5.0699331 66.4909504,5.23438385 66.6719513,5.43771432 C65.3017036,6.58913224 63.948006,7.71743249 62.6063926,8.85991858 C62.2396622,9.17200722 62.0633899,8.87568063 61.8479752,8.67445177 C59.6967178,6.6661036 57.1524598,5.68491584 54.2075831,5.75531968 C48.8067158,5.8845685 44.2656686,10.4024981 44.1067345,15.8023145 C43.9475378,21.207385 47.4753478,25.6819689 52.8073874,26.6019474 C56.733452,27.2791902 60.0450591,25.9751431 62.6502637,22.958549 C62.8680427,22.7063561 62.9796906,22.2839331 62.9841565,21.9387442 C63.0130536,19.6540347 62.9991305,17.3687998 62.9991305,15.0838276 C62.9991305,14.8282197 62.9991305,14.5726117 62.9991305,14.2510659" id="Fill-3"></path>
                        <path d="M22.4882129,1.0757765 C24.4424447,1.0757765 26.3186543,1.0757765 28.2996816,1.0757765 C28.2996816,1.33768927 28.2996816,1.5869924 28.2996816,1.83603283 C28.2996816,7.30047367 28.3078253,12.7646518 28.2973172,18.2290926 C28.2841822,25.2248169 23.6320125,30.9679833 16.7458345,32.2544295 C8.62259814,33.7723151 1.58746879,28.2180306 0.27843034,21.0034766 C0.119759013,20.1278945 0.0186191775,19.2289322 0.0149413652,18.3402151 C-0.00870171323,12.8053704 0.00233172339,7.27026306 0.0041706295,1.73541839 C0.0041706295,1.52893551 0.0243985966,1.32245262 0.0372709394,1.07945431 C1.95078409,1.07945431 3.82620562,1.07945431 5.80618209,1.07945431 C5.80618209,1.35739184 5.80591939,1.63060074 5.80618209,1.90354695 C5.8103853,7.39163087 5.80224158,12.8794521 5.82325765,18.3672733 C5.83796889,22.1969266 8.27451948,25.4129107 11.9024185,26.4558332 C17.1235984,27.9566432 22.4283171,24.1114906 22.4913653,18.6835652 C22.5562524,13.1024851 22.4945177,7.52009159 22.4882129,1.93822347 C22.4879502,1.66159945 22.4882129,1.38497543 22.4882129,1.0757765" id="Fill-5"></path>
                        <path d="M174.095487,28.5448042 C174.869141,26.8645694 175.650151,25.1685726 176.435889,23.4620677 C177.228195,24.0100618 177.924352,24.5761821 178.695116,25.010164 C181.866967,26.7967926 185.226123,27.5281518 188.804109,26.5054573 C189.522333,26.300288 190.241082,25.8760261 190.799322,25.3742674 C192.39628,23.9396579 192.18323,21.6060861 190.276284,20.645389 C188.866106,19.9350458 187.294367,19.5294357 185.772015,19.0605146 C183.932584,18.4938689 182.041663,18.0848436 180.22351,17.460929 C177.785909,16.6244894 175.778611,15.1827871 174.668437,12.7570072 C172.81088,8.69854144 174.512919,3.91002994 178.601595,1.62348155 C180.535599,0.542204761 182.634579,0.0806393289 184.830758,0.0365055824 C189.049734,-0.0478213976 192.936131,0.985118431 196.359386,3.53226609 C196.415341,3.57377282 196.464729,3.62421139 196.568758,3.7164194 C195.803773,5.38036672 195.032221,7.05823719 194.220213,8.82411245 C193.989036,8.65178068 193.794112,8.50151578 193.594459,8.35808111 C190.320681,6.0076964 186.729297,4.99656075 182.738083,5.92494563 C181.988072,6.09937901 181.229392,6.50787886 180.628069,6.99676519 C179.03978,8.28846537 179.185842,10.5978687 180.990859,11.5485832 C182.304101,12.2402746 183.775226,12.6550793 185.206158,13.0951032 C187.226065,13.7158654 189.300351,14.1663974 191.303445,14.8336576 C194.285888,15.827455 196.494939,17.688428 197.275161,20.8744642 C198.26423,24.9137528 196.551683,28.7042636 192.855219,30.8071841 C190.239244,32.29591 187.395244,32.6539713 184.458511,32.4540559 C180.886567,32.2107949 177.590722,31.1326705 174.663183,29.0263349 C174.510292,28.9165259 174.361603,28.8004122 174.213702,28.683773 C174.177975,28.6559267 174.153544,28.6141572 174.095487,28.5448042" id="Fill-7"></path>
                        <path d="M160.594869,8.84659965 C158.519795,7.08702921 156.13342,6.04699645 153.46254,5.69051137 C151.865056,5.47746096 150.263369,5.48402849 148.718425,6.03438681 C148.25791,6.19857486 147.799497,6.41162526 147.396252,6.68535957 C145.319601,8.09448705 145.459883,10.7020559 147.731721,11.7712485 C148.954068,12.3463007 150.28491,12.7051501 151.587119,13.0931592 C153.61228,13.6965831 155.680261,14.1647161 157.683618,14.8298747 C160.585937,15.7931988 162.768456,17.5892847 163.609887,20.6615714 C164.715332,24.6974449 163.026691,28.6290261 159.311312,30.7700382 C156.664338,32.2955422 153.775154,32.6656877 150.791135,32.4515865 C147.271994,32.1988683 144.017656,31.1435989 141.125056,29.076143 C140.971902,28.9665967 140.82295,28.8512711 140.672685,28.7377843 C140.616467,28.6954894 140.561826,28.6513557 140.469355,28.5791129 C141.259822,26.8602611 142.041357,25.1600611 142.851001,23.3997026 C144.528346,24.862421 146.373557,25.9042927 148.475427,26.4478208 C150.69341,27.0212968 152.935825,27.263507 155.154334,26.5232159 C155.893049,26.2770652 156.637543,25.8751329 157.217849,25.3620781 C158.753336,24.0041773 158.566818,21.6677157 156.764953,20.7064932 C155.477718,20.0197931 154.023932,19.6231148 152.615855,19.1899211 C150.776686,18.6240634 148.90179,18.1758957 147.056842,17.6284271 C145.622233,17.202589 144.315558,16.5030166 143.173598,15.526032 C139.021085,11.9737908 139.496048,5.30118868 144.109864,2.18109042 C146.455257,0.595427958 149.054157,0.0463831352 151.855599,0.0505624256 C155.385773,0.0558403665 158.639849,0.933786681 161.643571,2.76139665 C163.006463,3.5907433 163.000946,3.60834426 162.347346,5.04242832 C161.772557,6.30339251 161.188047,7.55989078 160.594869,8.84659965" id="Fill-9"></path>
                        <path d="M79.1970298,1.04349057 C80.9881243,1.04349057 82.7022475,1.03377063 84.4158453,1.06187963 C84.5550768,1.06424393 84.7402809,1.30566604 84.8127863,1.4751081 C84.8808259,1.63456753 84.8285484,1.84577903 84.8285484,2.03413555 C84.8288111,7.56950563 84.83065,13.1048757 84.8282857,18.6399831 C84.8274976,20.848772 85.1619158,22.9606243 86.602042,24.7464648 C87.7232493,26.1364152 89.2206443,27.0196155 90.7915955,27.7972101 C91.0198825,27.9101714 91.2497458,28.0199804 91.5332,28.157373 C90.4146197,29.5504757 89.3325548,30.9110035 88.2257961,32.2513034 C88.1356897,32.3603242 87.8398885,32.4139152 87.7019705,32.3527059 C83.2618004,30.3813986 80.2635953,27.210599 79.4925683,22.2694583 C79.2937037,20.9964099 79.2167324,19.6936763 79.2096394,18.403815 C79.1796915,12.9157311 79.1970298,7.42738446 79.1970298,1.93930054 C79.1970298,1.66320192 79.1970298,1.38710331 79.1970298,1.04349057" id="Fill-11"></path>
                    </g>
                </g>
            </g>
        </g>
    </g>
</svg>