<?xml version="1.0" encoding="UTF-8"?>
<svg width="40px" height="40px" viewBox="0 0 40 40" version="1.1" xmlns="http://www.w3.org/2000/svg" xmlns:xlink="http://www.w3.org/1999/xlink">
    <title>编组</title>
    <g id="页面-1" stroke="none" stroke-width="1" fill="none" fill-rule="evenodd">
        <g id="1首页" transform="translate(-1808.000000, -6927.000000)" fill="#000000" fill-rule="nonzero">
            <g id="6" transform="translate(0.000000, 6476.000000)">
                <g id="编组" transform="translate(1808.000000, 451.000000)">
                    <path d="M20,0 C8.95233487,0 0,8.95717397 0,20 C0,31.042826 8.95717397,40 20,40 C31.042826,40.0048391 40,31.0476651 40,20.0048391 C40,8.96201307 31.042826,0 20,0 Z M13.7478829,10.5927897 L25.6617469,10.5927897 C26.2230825,10.5927897 26.682797,11.0379869 26.682797,11.5896443 C26.682797,12.1413017 26.2279216,12.5864989 25.6617469,12.5864989 L13.7478829,12.5864989 C13.1865473,12.5864989 12.7268328,12.1413017 12.7268328,11.5896443 C12.7268328,11.0379869 13.1817082,10.5927897 13.7478829,10.5927897 Z M26.6876361,22.4534237 C26.1940479,22.9324946 25.3955964,22.9324946 24.9068473,22.4534237 L20.725865,18.3789015 L20.725865,29.0104041 C20.725865,29.5620615 20.2709896,30.0072586 19.7048149,30.0072586 C19.1434793,30.0072586 18.6837648,29.5620615 18.6837648,29.0104041 L18.6837648,18.3740624 L14.5027825,22.4485846 C14.0091943,22.9276555 13.2107428,22.9276555 12.7219937,22.4485846 C12.2284055,21.9695137 12.2284055,21.1904186 12.7219937,20.7113477 L18.8095814,14.7786112 C18.8095814,14.7786112 18.8095814,14.7737721 18.8144205,14.7737721 C19.0612146,14.5318171 19.3854343,14.4156787 19.7048149,14.4156787 C20.0290346,14.4156787 20.3484152,14.5366562 20.5952093,14.7737721 C20.5952093,14.7737721 20.5952093,14.7786112 20.6000484,14.7786112 L26.6876361,20.7161868 C27.1812243,21.1952577 27.1812243,21.9695137 26.6876361,22.4534237 Z" id="形状"></path>
                </g>
            </g>
        </g>
    </g>
</svg>